# This file uses meters as units for non-parametric coordinates.

mtllib Toy box.mtl
g default
v -52.436737 -0.971455 32.911404
v 47.563263 -0.971455 32.911404
v -52.436737 -0.971455 -32.911404
v 47.563263 -0.971455 -32.911404
v 47.563263 63.952641 32.911404
v -52.436737 63.952641 32.911404
v 47.563263 63.952641 -32.911404
v -52.436737 63.952641 -32.911404
v -49.103409 3.516739 29.355883
v 44.229927 3.516739 29.355883
v 44.229927 64.112556 29.355883
v -49.103409 64.112556 29.355883
v -49.103409 64.112556 -29.355883
v 44.229927 64.112556 -29.355883
v 44.229927 3.516739 -29.355883
v -49.103409 3.516739 -29.355883
vt 0.240779 0.129792
vt 0.706906 0.499764
vt 0.706906 0.718002
vt 0.240010 0.297840
vt 0.551178 0.499764
vt 0.120865 0.129243
vt 0.120097 0.297291
vt 0.551178 0.718002
vt 0.716337 0.340160
vt 0.716337 0.106334
vt 0.716337 0.725796
vt 0.716337 0.491970
vt 0.541747 0.491970
vt 0.541747 0.725796
vt 0.541747 0.106334
vt 0.541747 0.340160
vt 0.118779 0.585252
vt 0.009676 0.584753
vt 0.010445 0.416705
vt 0.119548 0.417204
vt 0.011762 0.128744
vt 0.010993 0.296792
vt 0.950163 0.340160
vt 0.950163 0.491970
vt 0.307921 0.491970
vt 0.307921 0.340160
vt 0.012311 0.008830
vt 0.121414 0.009330
vt 0.133332 0.340160
vt 0.133332 0.491970
vn 0.000000 0.000000 -1.000000
vn 0.000000 0.000000 -1.000000
vn 0.000000 0.000000 -1.000000
vn 0.000000 0.000000 -1.000000
vn 0.000000 0.000000 1.000000
vn 0.000000 0.000000 1.000000
vn 0.000000 0.000000 1.000000
vn 0.000000 0.000000 1.000000
vn 0.000000 1.000000 0.000000
vn 0.000000 1.000000 0.000000
vn 0.000000 1.000000 0.000000
vn 0.000000 1.000000 0.000000
vn -1.000000 0.000000 0.000000
vn -1.000000 0.000000 0.000000
vn -1.000000 0.000000 0.000000
vn -1.000000 0.000000 0.000000
vn 1.000000 0.000000 0.000000
vn 1.000000 0.000000 0.000000
vn 1.000000 0.000000 0.000000
vn 1.000000 0.000000 0.000000
vn 0.000000 0.000000 1.000000
vn 0.000000 0.000000 1.000000
vn 0.000000 0.000000 1.000000
vn 0.000000 0.000000 1.000000
vn 0.000000 0.000000 -1.000000
vn 0.000000 0.000000 -1.000000
vn 0.000000 0.000000 -1.000000
vn 0.000000 0.000000 -1.000000
vn 0.000000 -1.000000 0.000000
vn 0.000000 -1.000000 0.000000
vn 0.000000 -1.000000 0.000000
vn 0.000000 -1.000000 0.000000
vn 1.000000 0.000000 0.000000
vn 1.000000 0.000000 0.000000
vn 1.000000 0.000000 0.000000
vn 1.000000 0.000000 0.000000
vn -1.000000 0.000000 0.000000
vn -1.000000 0.000000 0.000000
vn -1.000000 0.000000 0.000000
vn -1.000000 0.000000 0.000000
vn 0.017140 0.999436 0.028883
vn 0.018362 0.999447 0.027738
vn -0.018362 0.999447 0.027738
vn -0.017140 0.999436 0.028884
vn -0.017140 0.999436 -0.028884
vn -0.018362 0.999447 -0.027738
vn 0.018362 0.999447 -0.027738
vn 0.017140 0.999436 -0.028883
s off
g Toy_box Toy_box
usemtl lambert2SG
f 9/17/1 12/18/2 11/19/3 10/20/4
f 13/21/5 16/6/6 15/7/7 14/22/8
f 16/6/9 9/1/10 10/4/11 15/7/12
f 10/20/13 11/19/14 14/22/15 15/7/16
f 16/6/17 13/21/18 12/27/19 9/28/20
f 1/9/21 2/23/22 5/24/23 6/12/24
f 8/13/25 7/25/26 4/26/27 3/16/28
f 3/16/29 4/15/30 2/10/31 1/9/32
f 2/29/33 4/26/34 7/25/35 5/30/36
f 3/16/37 1/9/38 6/12/39 8/13/40
s 1
f 5/11/41 11/3/42 12/2/43 6/12/44
f 8/13/45 13/5/46 14/8/47 7/14/48
f 7/14/48 14/8/47 11/3/42 5/11/41
f 6/12/44 12/2/43 13/5/46 8/13/45
g default
v -53.286259 75.270309 34.023193
v 48.412777 75.270309 34.023193
v -53.286259 75.270309 -32.917961
v 48.412777 75.270309 -32.917961
v -53.286259 63.953144 34.023193
v -53.286259 63.953144 -32.917961
v 48.412777 63.953144 -32.917961
v 48.412777 63.953144 34.023193
v -50.743774 71.945404 32.349663
v 45.870300 71.945404 32.349663
v 45.870300 71.945404 -31.244434
v -50.743774 71.945404 -31.244434
v -50.743774 64.092224 32.349663
v -50.743774 64.092224 -31.244434
v 45.870300 64.092224 -31.244434
v 45.870300 64.092224 32.349663
vt 0.964213 0.492102
vt 0.962662 0.692452
vt 0.960585 0.960780
vt 0.760235 0.959229
vt 0.151267 0.533563
vt 0.151267 0.724870
vt 0.407484 0.533563
vt 0.407484 0.724870
vt 0.144524 0.759917
vt 0.414227 0.759917
vt 0.414227 0.961294
vt 0.144525 0.961294
vt 0.144524 0.528528
vt 0.144524 0.729905
vt 0.414227 0.528528
vt 0.414226 0.729905
vt 0.984473 0.692621
vt 0.986024 0.492271
vt 0.988103 0.223943
vt 0.966292 0.223774
vt 0.967845 0.023423
vt 0.989656 0.023593
vt 0.114512 0.961294
vt 0.114511 0.759917
vt 0.444239 0.759917
vt 0.444239 0.961294
vt 0.982396 0.960949
vt 0.414227 0.991307
vt 0.144525 0.991307
vt 0.762312 0.690901
vn 0.000000 -1.000000 0.000000
vn 0.000000 -1.000000 0.000000
vn 0.000000 -1.000000 0.000000
vn 0.000000 -1.000000 0.000000
vn 1.000000 0.000000 0.000000
vn 1.000000 0.000000 0.000000
vn 1.000000 0.000000 0.000000
vn 1.000000 0.000000 0.000000
vn 0.000000 0.000000 1.000000
vn 0.000000 0.000000 1.000000
vn 0.000000 0.000000 1.000000
vn 0.000000 0.000000 1.000000
vn -1.000000 0.000000 0.000000
vn -1.000000 0.000000 0.000000
vn -1.000000 0.000000 0.000000
vn -1.000000 0.000000 0.000000
vn 0.000000 0.000000 -1.000000
vn 0.000000 0.000000 -1.000000
vn 0.000000 0.000000 -1.000000
vn 0.000000 0.000000 -1.000000
vn 0.000000 1.000000 0.000000
vn 0.000000 1.000000 0.000000
vn 0.000000 1.000000 0.000000
vn 0.000000 1.000000 0.000000
vn -1.000000 0.000000 0.000000
vn -1.000000 0.000000 0.000000
vn -1.000000 0.000000 0.000000
vn -1.000000 0.000000 0.000000
vn 0.000000 0.000000 -1.000000
vn 0.000000 0.000000 -1.000000
vn 0.000000 0.000000 -1.000000
vn 0.000000 0.000000 -1.000000
vn 1.000000 0.000000 0.000000
vn 1.000000 0.000000 0.000000
vn 1.000000 0.000000 0.000000
vn 1.000000 0.000000 0.000000
vn 0.000000 0.000000 1.000000
vn 0.000000 0.000000 1.000000
vn 0.000000 0.000000 1.000000
vn 0.000000 0.000000 1.000000
vn 0.034367 -0.998934 0.030806
vn 0.024963 -0.998672 0.045072
vn 0.024963 -0.998672 -0.045072
vn 0.034367 -0.998934 -0.030806
vn -0.034367 -0.998934 0.030806
vn -0.024963 -0.998672 0.045073
vn -0.034367 -0.998934 -0.030806
vn -0.024963 -0.998672 -0.045072
s off
g Toy_box Toy_box_lid
usemtl lambert2SG
f 25/60/49 28/32/50 27/33/51 26/34/52
f 30/47/53 28/32/54 25/31/55 29/48/56
f 28/32/57 30/47/58 31/57/59 27/33/60
f 32/49/61 26/50/62 27/51/63 31/52/64
f 29/48/65 25/31/66 26/50/67 32/49/68
f 17/39/69 18/40/70 20/41/71 19/42/72
f 22/53/73 21/54/74 17/39/75 19/42/76
f 19/42/77 20/41/78 23/58/79 22/59/80
f 24/55/81 23/56/82 20/41/83 18/40/84
f 21/44/85 24/46/86 18/40/87 17/39/88
s 1
f 22/43/89 30/35/90 29/36/91 21/44/92
f 23/45/93 31/37/94 30/35/90 22/43/89
f 24/46/95 32/38/96 31/37/94 23/45/93
f 21/44/92 29/36/91 32/38/96 24/46/95
